<?xml version="1.0" encoding="UTF-8" standalone="no"?>
<svg
   xmlns:dc="http://purl.org/dc/elements/1.1/"
   xmlns:cc="http://creativecommons.org/ns#"
   xmlns:rdf="http://www.w3.org/1999/02/22-rdf-syntax-ns#"
   xmlns:svg="http://www.w3.org/2000/svg"
   xmlns="http://www.w3.org/2000/svg"
   xmlns:sodipodi="http://sodipodi.sourceforge.net/DTD/sodipodi-0.dtd"
   xmlns:inkscape="http://www.inkscape.org/namespaces/inkscape"
   viewBox="0 0 64 64"
   enable-background="new 0 0 64 64"
   version="1.1"
   id="svg3187"
   sodipodi:docname="angry.svg"
   inkscape:version="0.92.3 (2405546, 2018-03-11)">
  <metadata
     id="metadata3193">
    <rdf:RDF>
      <cc:Work
         rdf:about="">
        <dc:format>image/svg+xml</dc:format>
        <dc:type
           rdf:resource="http://purl.org/dc/dcmitype/StillImage" />
        <dc:title></dc:title>
      </cc:Work>
    </rdf:RDF>
  </metadata>
  <defs
     id="defs3191" />
  <sodipodi:namedview
     pagecolor="#ffffff"
     bordercolor="#666666"
     borderopacity="1"
     objecttolerance="10"
     gridtolerance="10"
     guidetolerance="10"
     inkscape:pageopacity="0"
     inkscape:pageshadow="2"
     inkscape:window-width="1853"
     inkscape:window-height="1025"
     id="namedview3189"
     showgrid="false"
     inkscape:zoom="3.6875"
     inkscape:cx="146.37035"
     inkscape:cy="32"
     inkscape:window-x="67"
     inkscape:window-y="27"
     inkscape:window-maximized="1"
     inkscape:current-layer="svg3187" />
  <g
     id="color-1-0"
     transform="matrix(1.1653827,0,0,1.1653827,-13.685333,-7.575384)"
     style="fill:#fb4541;fill-opacity:1">
    <path
       style="fill:#fb4541;fill-opacity:1"
       inkscape:connector-curvature="0"
       d="M 36,13 C 23.3177,13 13,23.3177 13,36 13,48.6822 23.3177,59 36,59 48.6822,59 59,48.6823 59,36 59,23.3177 48.6822,13 36,13 Z"
       id="path2255-3" />
    <path
       style="fill:#fb4541;fill-opacity:1"
       inkscape:connector-curvature="0"
       d="m 40.9453,46.6999 h -9.8906 c -1.28,0 -2.3272,-1.4849 -2.3272,-3.2999 v 0 c 0,-1.8149 1.0472,-3.2999 2.3272,-3.2999 h 9.8906 c 1.28,0 2.3272,1.4849 2.3272,3.2999 v 0 c 0,1.8149 -1.0472,3.2999 -2.3272,3.2999 z"
       id="path2257-9" />
  </g>
  <circle
     id="circle2263-1"
     stroke-miterlimit="10"
     r="26.803804"
     cy="34.378372"
     cx="28.268436"
     style="fill:none;stroke:#000000;stroke-width:2.33076572;stroke-miterlimit:10" />
  <path
     id="path2265-9"
     d="m 21.276167,29.629687 c 0,1.930701 -1.567206,3.496149 -3.49615,3.496149 -1.929091,0 -3.496151,-1.565448 -3.496151,-3.496149 0,-1.928945 1.56706,-3.49615 3.496151,-3.49615 1.928944,0 3.49615,1.567095 3.49615,3.49615"
     inkscape:connector-curvature="0"
     style="stroke-width:1.16538286" />
  <path
     id="path2267-6"
     d="m 42.25303,29.629687 c 0,1.930701 -1.567096,3.496149 -3.49615,3.496149 -1.929054,0 -3.49615,-1.565448 -3.49615,-3.496149 0,-1.928945 1.567096,-3.49615 3.49615,-3.49615 1.929054,0 3.49615,1.567095 3.49615,3.49615"
     inkscape:connector-curvature="0"
     style="stroke-width:1.16538286" />
  <path
     id="path2269-9"
     d="M 34.031616,46.847863 H 22.50528 c -1.491687,0 -2.712089,-1.730468 -2.712089,-3.845626 v 0 c 0,-2.115049 1.220402,-3.845662 2.712089,-3.845662 h 11.526336 c 1.491688,0 2.71209,1.730467 2.71209,3.845662 v 0 c 0,2.115049 -1.220402,3.845626 -2.71209,3.845626 z"
     stroke-miterlimit="2"
     inkscape:connector-curvature="0"
     style="fill:#ebe8e8;fill-opacity:1;stroke:#000000;stroke-width:2.33076572;stroke-miterlimit:2" />
  <line
     id="line2271-3"
     stroke-miterlimit="10"
     y2="24.021152"
     y1="19.359627"
     x2="21.27615"
     x1="13.118482"
     style="fill:none;stroke:#000000;stroke-width:2.33076572;stroke-linecap:round;stroke-linejoin:round;stroke-miterlimit:10" />
  <line
     id="line2273-3"
     stroke-miterlimit="10"
     y2="24.021152"
     y1="19.359627"
     x2="35.260719"
     x1="43.418442"
     style="fill:none;stroke:#000000;stroke-width:2.33076572;stroke-linecap:round;stroke-linejoin:round;stroke-miterlimit:10" />
  <text
     xml:space="preserve"
     style="font-style:normal;font-weight:normal;font-size:17.19266701px;line-height:125%;font-family:sans-serif;letter-spacing:0px;word-spacing:0px;fill:#000000;fill-opacity:1;stroke:#000000;stroke-width:0.66012919;stroke-linecap:butt;stroke-linejoin:miter;stroke-miterlimit:4;stroke-dasharray:none;stroke-opacity:1"
     x="49.628895"
     y="13.203415"
     id="text3810"
     transform="scale(0.955648,1.0464104)"><tspan
       sodipodi:role="line"
       id="tspan3808"
       x="49.628895"
       y="13.203415"
       style="font-weight:bold;stroke:#000000;stroke-width:0.66012919;stroke-miterlimit:4;stroke-dasharray:none;stroke-opacity:1">@</tspan></text>
</svg>
