<?xml version="1.0" encoding="UTF-8" standalone="no"?>
<svg
   xmlns:dc="http://purl.org/dc/elements/1.1/"
   xmlns:cc="http://creativecommons.org/ns#"
   xmlns:rdf="http://www.w3.org/1999/02/22-rdf-syntax-ns#"
   xmlns:svg="http://www.w3.org/2000/svg"
   xmlns="http://www.w3.org/2000/svg"
   xmlns:sodipodi="http://sodipodi.sourceforge.net/DTD/sodipodi-0.dtd"
   xmlns:inkscape="http://www.inkscape.org/namespaces/inkscape"
   viewBox="0 0 64 64"
   enable-background="new 0 0 64 64"
   version="1.1"
   id="svg18"
   sodipodi:docname="haha.svg"
   inkscape:version="0.92.3 (2405546, 2018-03-11)">
  <metadata
     id="metadata24">
    <rdf:RDF>
      <cc:Work
         rdf:about="">
        <dc:format>image/svg+xml</dc:format>
        <dc:type
           rdf:resource="http://purl.org/dc/dcmitype/StillImage" />
        <dc:title></dc:title>
      </cc:Work>
    </rdf:RDF>
  </metadata>
  <defs
     id="defs22" />
  <sodipodi:namedview
     pagecolor="#ffffff"
     bordercolor="#666666"
     borderopacity="1"
     objecttolerance="10"
     gridtolerance="10"
     guidetolerance="10"
     inkscape:pageopacity="0"
     inkscape:pageshadow="2"
     inkscape:window-width="1853"
     inkscape:window-height="1025"
     id="namedview20"
     showgrid="false"
     inkscape:zoom="3.6875"
     inkscape:cx="32"
     inkscape:cy="32"
     inkscape:window-x="67"
     inkscape:window-y="27"
     inkscape:window-maximized="1"
     inkscape:current-layer="svg18" />
  <g
     id="g1491"
     transform="matrix(1.0747201,0,0,1.0747201,-10.946407,-6.335896)">
    <g
       id="color-2">
      <circle
         id="circle1435"
         r="24"
         cy="35.998901"
         cx="35.999699"
         style="fill:#fcea2b" />
      <path
         id="path1437"
         d="m 51.58,34.554 a 11.5549,11.5549 0 0 1 1.2192,4.408 C 42.9625,47.2342 30.1775,50.5842 28.1236,51.08 a 11.4345,11.4345 0 0 1 -2.6837,-3.535 l 0.0985,-0.0489 c 0,0 14.8516,-3.3718 25.9023,-12.7948 z"
         inkscape:connector-curvature="0"
         style="fill:#ffffff" />
      <path
         id="path1439"
         d="m 52.799,38.962 c 0.2974,4.6205 -2.4688,9.3006 -9.0418,12.5673 C 37.1215,54.8271 31.6358,54.17 28.1237,51.08 30.1775,50.5841 42.9626,47.234 52.799,38.962 Z"
         inkscape:connector-curvature="0"
         style="fill:#ea5a47" />
      <path
         id="path1441"
         d="m 67.6926,32.9089 a 4.2419,4.2419 0 0 1 -5.3735,2.6717 c -3.9838,-1.3386 -6.68,-6.6869 -6.7069,-6.74 0.213,-0.0912 5.4464,-2.637 9.41,-1.3052 a 4.241,4.241 0 0 1 2.6706,5.3737 z"
         inkscape:connector-curvature="0"
         style="fill:#92d3f5" />
      <path
         id="path1443"
         d="m 14.395,59.3977 a 4.2421,4.2421 0 0 1 -2.6718,-5.3736 c 1.3387,-3.9837 6.6869,-6.68 6.74,-6.7068 0.0912,0.213 2.6369,5.4464 1.3052,9.41 a 4.2411,4.2411 0 0 1 -5.3737,2.6707 z"
         inkscape:connector-curvature="0"
         style="fill:#92d3f5" />
    </g>
    <g
       id="hair-2" />
    <g
       id="skin-4" />
    <g
       id="skin-shadow-7" />
    <g
       id="line-75">
      <path
         id="path1449"
         d="M 55.2766,23.4489 Q 55.2307,23.3781 55.1842,23.3078 A 23.0031,23.0031 0 0 0 14.2153,43.3865 c 0.0343,0.1023 0.1046,0.2972 0.14,0.3993"
         inkscape:connector-curvature="0"
         style="fill:none;stroke:#000000;stroke-width:2;stroke-linecap:round;stroke-linejoin:round" />
      <path
         id="path1451"
         d="M 25.0368,56.22 A 23.5311,23.5311 0 0 0 46.2359,56.5955 23.3425,23.3425 0 0 0 58.7218,39.5728"
         inkscape:connector-curvature="0"
         style="fill:none;stroke:#000000;stroke-width:2;stroke-linecap:round;stroke-linejoin:round" />
      <path
         id="path1453"
         d="m 51.58,34.554 a 11.5549,11.5549 0 0 1 1.2192,4.408 C 42.9625,47.2342 30.1775,50.5842 28.1236,51.08 a 11.4345,11.4345 0 0 1 -2.6837,-3.535 l 0.0985,-0.0489 c 0,0 14.8516,-3.3718 25.9023,-12.7948 z"
         inkscape:connector-curvature="0"
         style="fill:none;stroke:#000000;stroke-width:2;stroke-linecap:round;stroke-linejoin:round" />
      <path
         id="path1455"
         d="m 52.799,38.962 c 0.2974,4.6205 -2.4688,9.3006 -9.0418,12.5673 C 37.1215,54.8271 31.6358,54.17 28.1237,51.08 30.1775,50.584 42.9625,47.2341 52.799,38.962 Z"
         inkscape:connector-curvature="0"
         style="fill:none;stroke:#000000;stroke-width:2;stroke-linecap:round;stroke-linejoin:round" />
      <path
         id="path1457"
         d="m 67.6926,32.9089 a 4.2419,4.2419 0 0 1 -5.3735,2.6717 c -3.9838,-1.3386 -6.68,-6.6869 -6.7069,-6.74 0.213,-0.0912 5.4464,-2.637 9.41,-1.3052 a 4.241,4.241 0 0 1 2.6706,5.3737 z"
         inkscape:connector-curvature="0"
         style="fill:none;stroke:#000000;stroke-width:2;stroke-linejoin:round" />
      <path
         id="path1459"
         d="m 14.395,59.3977 a 4.2421,4.2421 0 0 1 -2.6718,-5.3736 c 1.3387,-3.9837 6.6869,-6.68 6.74,-6.7068 0.0912,0.213 2.6369,5.4464 1.3052,9.41 a 4.2411,4.2411 0 0 1 -5.3737,2.6707 z"
         inkscape:connector-curvature="0"
         style="fill:none;stroke:#000000;stroke-width:2;stroke-linejoin:round" />
      <polyline
         id="polyline1461"
         points="22.478 33.13 30.163 33.793 25.928 40.072"
         style="fill:none;stroke:#000000;stroke-width:2;stroke-linecap:round;stroke-linejoin:round" />
      <polyline
         id="polyline1463"
         points="41.878 23.488 37.766 30.014 45.328 30.43"
         style="fill:none;stroke:#000000;stroke-width:2;stroke-linecap:round;stroke-linejoin:round" />
    </g>
  </g>
</svg>
