<?xml version="1.0" encoding="UTF-8" standalone="no"?>
<svg
   xmlns:dc="http://purl.org/dc/elements/1.1/"
   xmlns:cc="http://creativecommons.org/ns#"
   xmlns:rdf="http://www.w3.org/1999/02/22-rdf-syntax-ns#"
   xmlns:svg="http://www.w3.org/2000/svg"
   xmlns="http://www.w3.org/2000/svg"
   xmlns:sodipodi="http://sodipodi.sourceforge.net/DTD/sodipodi-0.dtd"
   xmlns:inkscape="http://www.inkscape.org/namespaces/inkscape"
   height="100"
   viewBox="0 0 100 100"
   width="100"
   version="1.1"
   id="svg18"
   sodipodi:docname="like.svg"
   inkscape:version="0.92.3 (2405546, 2018-03-11)">
  <metadata
     id="metadata24">
    <rdf:RDF>
      <cc:Work
         rdf:about="">
        <dc:format>image/svg+xml</dc:format>
        <dc:type
           rdf:resource="http://purl.org/dc/dcmitype/StillImage" />
        <dc:title></dc:title>
      </cc:Work>
    </rdf:RDF>
  </metadata>
  <defs
     id="defs22" />
  <sodipodi:namedview
     pagecolor="#ffffff"
     bordercolor="#666666"
     borderopacity="1"
     objecttolerance="10"
     gridtolerance="10"
     guidetolerance="10"
     inkscape:pageopacity="0"
     inkscape:pageshadow="2"
     inkscape:window-width="1853"
     inkscape:window-height="1025"
     id="namedview20"
     showgrid="false"
     inkscape:zoom="2.36"
     inkscape:cx="50"
     inkscape:cy="50"
     inkscape:window-x="67"
     inkscape:window-y="27"
     inkscape:window-maximized="1"
     inkscape:current-layer="svg18" />
  <ellipse
     style="opacity:1;fill:#2400ff;fill-opacity:1;stroke:#000000;stroke-width:3.53912663;stroke-miterlimit:4;stroke-dasharray:none;stroke-opacity:1"
     id="path1626"
     cx="49.152546"
     cy="49.93111"
     rx="47.217915"
     ry="46.649025" />
  <g
     transform="matrix(4.3002751,0,0,4.3002751,-239.27497,-1149.8815)"
     id="g2115">
    <path
       sodipodi:nodetypes="ccccccccccczcsccccc"
       inkscape:connector-curvature="0"
       id="path2048-7"
       d="m 66.400176,269.92325 -6.39921,8.2611 -0.753481,3.09171 1.268355,3.30605 3.077321,1.24756 4.283297,0.16634 4.574394,0.0208 0.64458,-1.39312 -0.29786,-0.78926 1.75334,-0.52067 -0.0624,-1.68422 c 0,0 1.09393,-1.09786 0.97409,-1.67224 -0.11983,-0.57437 -1.45566,-0.88336 -1.45566,-0.88336 0,0 0.88872,-0.9319 0.8842,-1.40028 -0.004,-0.46516 -0.90165,-0.95119 -0.90165,-0.95119 l -8.632347,-0.089 2.415327,-6.37745 -0.706952,-0.45743 z"
       style="fill:#ffffff;fill-opacity:1;fill-rule:evenodd;stroke:#000000;stroke-width:0.33268327px;stroke-linecap:butt;stroke-linejoin:miter;stroke-opacity:1" />
    <g
       style="fill:none;fill-opacity:1;stroke:#000000;stroke-opacity:1"
       transform="matrix(0.3326833,0,0,0.3326833,55.298156,266.12038)"
       id="line-7-2">
      <path
         sodipodi:nodetypes="cscc"
         id="path1167-4"
         d="M 40.274136,59.6006 H 26.236 c -8.321,0 -14,-6.681 -14,-15 0.0204,-4.7991 1.7993,-9.4241 5,-13"
         inkscape:connector-curvature="0"
         style="fill:none;fill-opacity:1;stroke:#000000;stroke-width:2;stroke-linecap:round;stroke-linejoin:round;stroke-opacity:1" />
      <path
         sodipodi:nodetypes="ccccc"
         id="path1169-06"
         d="M 38.956029,31.6006 H 30.236 l 7,-18 c 0.811,-2.084 -2.79,-3.8 -5,-1 l -15,19"
         inkscape:connector-curvature="0"
         style="fill:none;fill-opacity:1;stroke:#000000;stroke-width:2;stroke-linecap:round;stroke-linejoin:round;stroke-opacity:1" />
      <path
         id="path1171-2"
         d="m 37.448,35.1006 c 0.1527,2.0638 1.9342,3.6226 4,3.5 h 13 c 1.933,0.2578 3.709,-1.1001 3.9669,-3.0331 0.2579,-1.933 -1.1001,-3.709 -3.0331,-3.9669 -0.3099,-0.0413 -0.6238,-0.0413 -0.9337,0 h -13 c -2.0659,-0.1226 -3.8474,1.4362 -4.0001,3.5 z"
         inkscape:connector-curvature="0"
         style="fill:none;fill-opacity:1;stroke:#000000;stroke-width:2;stroke-linecap:round;stroke-linejoin:round;stroke-opacity:1" />
      <path
         id="path1173-9"
         d="m 38.305,56.4366 c 0.1527,2.0638 1.9342,3.6226 4,3.5 h 7 c 1.933,0.2578 3.709,-1.1001 3.9669,-3.0331 0.2579,-1.933 -1.1001,-3.709 -3.0331,-3.9669 -0.3099,-0.0413 -0.6238,-0.0413 -0.9337,0 h -7 c -2.0659,-0.1226 -3.8474,1.4362 -4.0001,3.5 z"
         inkscape:connector-curvature="0"
         style="fill:none;fill-opacity:1;stroke:#000000;stroke-width:2;stroke-linecap:round;stroke-linejoin:round;stroke-opacity:1" />
      <path
         id="path1175-9"
         d="m 33.236,42.4366 c 0.1527,2.0638 1.9342,3.6226 4,3.5 h 19 c 1.933,0.2578 3.709,-1.1001 3.9669,-3.0331 0.2579,-1.933 -1.1001,-3.709 -3.0331,-3.9669 -0.3099,-0.0413 -0.6238,-0.0413 -0.9337,0 h -19 c -2.0659,-0.1226 -3.8474,1.4362 -4.0001,3.5 z"
         inkscape:connector-curvature="0"
         style="fill:none;fill-opacity:1;stroke:#000000;stroke-width:2;stroke-linecap:round;stroke-linejoin:round;stroke-opacity:1" />
      <path
         id="path1177-0"
         d="m 35.236,49.4366 c 0.1527,2.0638 1.9342,3.6226 4,3.5 h 15 c 1.933,0.2578 3.709,-1.1001 3.9669,-3.0331 0.2579,-1.933 -1.1001,-3.709 -3.0331,-3.9669 -0.3099,-0.0413 -0.6238,-0.0413 -0.9337,0 h -15 c -2.0659,-0.1226 -3.8474,1.4362 -4.0001,3.5 z"
         inkscape:connector-curvature="0"
         style="fill:none;fill-opacity:1;stroke:#000000;stroke-width:2;stroke-linecap:round;stroke-linejoin:round;stroke-opacity:1" />
      <path
         id="path1179-8"
         d="m 14.136,36.2626 c -1.176,2.4511 -1.8253,5.1215 -1.906,7.839 0,8.56 4.625,15.5 15.125,15.5"
         stroke-miterlimit="10"
         inkscape:connector-curvature="0"
         style="fill:none;fill-opacity:1;stroke:#000000;stroke-width:2;stroke-miterlimit:10;stroke-opacity:1" />
    </g>
  </g>
</svg>
