<?xml version="1.0" encoding="UTF-8" standalone="no"?>
<svg
   xmlns:dc="http://purl.org/dc/elements/1.1/"
   xmlns:cc="http://creativecommons.org/ns#"
   xmlns:rdf="http://www.w3.org/1999/02/22-rdf-syntax-ns#"
   xmlns:svg="http://www.w3.org/2000/svg"
   xmlns="http://www.w3.org/2000/svg"
   xmlns:xlink="http://www.w3.org/1999/xlink"
   xmlns:sodipodi="http://sodipodi.sourceforge.net/DTD/sodipodi-0.dtd"
   xmlns:inkscape="http://www.inkscape.org/namespaces/inkscape"
   viewBox="0 0 64 64"
   enable-background="new 0 0 64 64"
   version="1.1"
   id="svg4764"
   sodipodi:docname="sad.svg"
   inkscape:version="0.92.3 (2405546, 2018-03-11)">
  <metadata
     id="metadata4770">
    <rdf:RDF>
      <cc:Work
         rdf:about="">
        <dc:format>image/svg+xml</dc:format>
        <dc:type
           rdf:resource="http://purl.org/dc/dcmitype/StillImage" />
        <dc:title></dc:title>
      </cc:Work>
    </rdf:RDF>
  </metadata>
  <defs
     id="defs4768">
    <clipPath
       clip-path="url(#SVGID_5_)"
       id="SVGID_6_">
      <use
         id="use1918"
         xlink:href="#SVGID_4_"
         overflow="visible"
         style="overflow:visible"
         x="0"
         y="0"
         width="100%"
         height="100%" />
    </clipPath>
    <polygon
       points="0,2 1,2 0,3 "
       id="polygon1974" />
    <polygon
       points="0,2 1,2 0,3 "
       id="polygon1980" />
    <polygon
       points="-2,0 -3,0 -2,-1 "
       id="polygon1983" />
  </defs>
  <sodipodi:namedview
     pagecolor="#ffffff"
     bordercolor="#666666"
     borderopacity="1"
     objecttolerance="10"
     gridtolerance="10"
     guidetolerance="10"
     inkscape:pageopacity="0"
     inkscape:pageshadow="2"
     inkscape:window-width="1853"
     inkscape:window-height="1025"
     id="namedview4766"
     showgrid="false"
     inkscape:zoom="3.6875"
     inkscape:cx="22.237288"
     inkscape:cy="32"
     inkscape:window-x="67"
     inkscape:window-y="27"
     inkscape:window-maximized="1"
     inkscape:current-layer="svg4764" />
  <g
     id="g2014"
     transform="matrix(1.0259956,0,0,1.1450867,-4.7854582,-6.3496522)">
    <g
       id="color-25">
      <g
         id="g1927">
        <g
           id="g1925">
          <g
             id="g1907">
            <defs
               id="defs1902">
              <polygon
                 points="0,3 0,2 1,2 "
                 id="polygon5364" />
            </defs>
            <clipPath
               id="SVGID_2_">
              <use
                 id="use1904"
                 xlink:href="#SVGID_1_"
                 overflow="visible"
                 style="overflow:visible"
                 x="0"
                 y="0"
                 width="100%"
                 height="100%" />
            </clipPath>
          </g>
          <g
             id="g1923">
            <defs
               id="defs1910">
              <polygon
                 points="0,3 0,2 1,2 "
                 id="polygon5370" />
            </defs>
            <defs
               id="defs1913">
              <polygon
                 points="-2,-1 -2,0 -3,0 "
                 id="polygon5373" />
            </defs>
            <clipPath
               id="SVGID_5_">
              <use
                 id="use1915"
                 xlink:href="#SVGID_3_"
                 overflow="visible"
                 style="overflow:visible"
                 x="0"
                 y="0"
                 width="100%"
                 height="100%" />
            </clipPath>
            <clipPath
               clip-path="url(#SVGID_5_)"
               id="clipPath4661">
              <use
                 id="use4659"
                 xlink:href="#SVGID_4_"
                 overflow="visible"
                 style="overflow:visible"
                 x="0"
                 y="0"
                 width="100%"
                 height="100%" />
            </clipPath>
            <rect
               id="rect1921"
               clip-path="url(#SVGID_6_)"
               height="56"
               width="55.25"
               y="2.4201"
               x="8.75"
               style="fill:#fcea2b" />
          </g>
        </g>
      </g>
      <circle
         id="circle1929"
         r="24"
         cy="30.420099"
         cx="36"
         style="fill:#fcea2b" />
      <polygon
         id="polygon1931"
         points="35.6332,49.6589 37.1077,48.7386 42.2043,47.0679 43.7846,47.9033 43.7846,48.7386 43.7846,50.726 41.5238,51.8338 39.1168,52.6228 36.0908,53.1573 35.293,52.8658 "
         style="fill:#fcea2b" />
      <path
         id="path1933"
         d="m 16.5504,61.0381 c 0,0 -0.7001,-3.559 -0.4126,-4.9449 0.2875,-1.386 3.2154,-8.9803 3.7058,-10.2387 0.4905,-1.2584 1.9884,-6.276 3.3321,-6.6078 1.3437,-0.3319 1.6494,0.1675 1.5908,0.9544 -0.0587,0.7869 -0.8061,10.7526 -0.8061,10.7526 l 12.9169,-3.9249 c 0,0 6.0147,-1.6332 6.2521,-0.4403 0.0794,0.3986 0.1788,1.3206 -0.6519,1.8762 -1.6552,1.1071 -5.8398,2.7239 -5.8398,2.7239 0,0 1.5801,0.8783 1.3342,1.8305 -0.246,0.9521 -0.3972,2.2106 -0.7208,2.2622 -0.3236,0.0516 1.3674,0.6568 1.393,1.865 0.0256,1.2082 -0.5322,1.7665 -1.3755,2.0227 -0.8433,0.2562 1.4478,1.361 1.5205,1.8736 0.0728,0.5126 0.8148,1.5031 -0.517,1.9078 -1.3318,0.4047 -10.4322,3.1699 -10.4322,3.1699 0,0 -4.5775,1.5426 -7.2801,-0.0955 -2.7027,-1.6383 -4.0094,-4.9867 -4.0094,-4.9867 z"
         inkscape:connector-curvature="0"
         style="fill:#fcea2b" />
    </g>
    <g
       id="hair-86" />
    <g
       id="skin-2" />
    <g
       id="skin-shadow-8" />
    <g
       id="line-4">
      <path
         id="path1939"
         d="m 28.8884,38.7481 c 2.3711,-0.667 11.8767,0.5356 14.0593,2.0654"
         stroke-miterlimit="10"
         inkscape:connector-curvature="0"
         style="fill:none;stroke:#000000;stroke-width:2;stroke-linecap:round;stroke-linejoin:round;stroke-miterlimit:10" />
      <path
         id="path1941"
         d="m 22.3595,16.7775 c 1.2836,-0.8899 2.8496,-1.2724 4.3983,-1.0733 1.5696,0.0357 3.0678,0.6574 4.204,1.7396"
         stroke-miterlimit="10"
         inkscape:connector-curvature="0"
         style="fill:none;stroke:#000000;stroke-width:2;stroke-linecap:round;stroke-linejoin:round;stroke-miterlimit:10" />
      <path
         id="path1943"
         d="m 51.1306,20.7918 c -2.7613,-0.6555 -5.3671,-0.7511 -8.242,-0.2607"
         stroke-miterlimit="10"
         inkscape:connector-curvature="0"
         style="fill:none;stroke:#000000;stroke-width:2;stroke-linecap:round;stroke-linejoin:round;stroke-miterlimit:10" />
      <path
         id="path1945"
         d="M 42.0164,52.6252 C 51.8008,49.9804 59,41.0407 59,30.4201 c 0,-12.7031 -10.2978,-23 -23,-23 -12.7031,0 -23,10.2969 -23,23 0,4.8349 1.4919,9.3215 4.0404,13.0244"
         stroke-miterlimit="10"
         inkscape:connector-curvature="0"
         style="fill:none;stroke:#000000;stroke-width:2;stroke-linecap:round;stroke-linejoin:round;stroke-miterlimit:10" />
      <path
         id="path1947"
         d="m 31,25 c 0,1.6568 -1.3448,3 -3,3 -1.6553,0 -3,-1.3433 -3,-3 0,-1.6552 1.3447,-3 3,-3 1.6552,0 3,1.3448 3,3"
         inkscape:connector-curvature="0" />
      <path
         id="path1949"
         d="m 48,28 c 0,1.6568 -1.3447,3 -3,3 -1.6553,0 -3,-1.3433 -3,-3 0,-1.6552 1.3447,-3 3,-3 1.6553,0 3,1.3448 3,3"
         inkscape:connector-curvature="0" />
      <path
         id="path1951"
         d="m 35.4853,63.797 -9.0851,2.7606 c -4.4471,1.3513 -8.5667,-1.2969 -9.9177,-5.7429 -1.2991,-4.2753 0.5611,-7.7594 0.5611,-7.7594"
         stroke-miterlimit="10"
         inkscape:connector-curvature="0"
         style="fill:none;stroke:#000000;stroke-width:2;stroke-linecap:round;stroke-linejoin:round;stroke-miterlimit:10" />
      <path
         id="path1953"
         d="m 30.9385,48.8333 -6.9474,2.111 c 0,0 0,0 0.818,-10.7562 0.0947,-1.2453 -2.1081,-1.5776 -2.8345,0.2775 -4.9309,12.5898 -4.9309,12.5898 -4.9309,12.5898"
         stroke-miterlimit="10"
         inkscape:connector-curvature="0"
         style="fill:none;stroke:#000000;stroke-width:2;stroke-linecap:round;stroke-linejoin:round;stroke-miterlimit:10" />
      <path
         id="path1955"
         d="m 35.0824,51.1807 4.9606,-1.5073 c 2.105,-0.6396 3.6015,-1.9058 3.3256,-2.8138 -0.2759,-0.908 -2.2239,-1.1275 -4.3288,-0.4879 l -13.6938,4.161"
         stroke-miterlimit="10"
         inkscape:connector-curvature="0"
         style="fill:none;stroke:#000000;stroke-width:2;stroke-linecap:round;stroke-linejoin:round;stroke-miterlimit:10" />
      <path
         id="path1957"
         d="m 33.7789,64.3155 c 0,0 1.2343,-0.3751 2.743,-0.8335 1.5086,-0.4584 2.4739,-1.719 2.1451,-2.8013 -0.3289,-1.0823 -1.4686,-1.7033 -2.5327,-1.38 -1.0641,0.3233 -1.9347,0.5879 -1.9347,0.5879"
         stroke-miterlimit="10"
         inkscape:connector-curvature="0"
         style="fill:none;stroke:#000000;stroke-width:2;stroke-linecap:round;stroke-linejoin:round;stroke-miterlimit:10" />
      <path
         id="path1959"
         d="m 34.6494,55.5854 c 0,0 0.8607,-0.2615 1.9126,-0.5812 1.0519,-0.3197 1.6452,-1.461 1.3185,-2.5365 -0.3268,-1.0754 -1.4819,-1.6855 -2.567,-1.3558 -1.0851,0.3297 -1.9729,0.5995 -1.9729,0.5995"
         stroke-miterlimit="10"
         inkscape:connector-curvature="0"
         style="fill:none;stroke:#000000;stroke-width:2;stroke-linecap:round;stroke-linejoin:round;stroke-miterlimit:10" />
      <path
         id="path1961"
         d="m 34.5143,59.793 c 0,0 1.0316,-0.3135 2.2925,-0.6966 1.2609,-0.3831 2.0315,-1.5555 1.7125,-2.6053 -0.319,-1.0498 -1.4451,-1.6458 -2.5024,-1.3246 -1.0573,0.3212 -1.9225,0.5842 -1.9225,0.5842"
         stroke-miterlimit="10"
         inkscape:connector-curvature="0"
         style="fill:none;stroke:#000000;stroke-width:2;stroke-linecap:round;stroke-linejoin:round;stroke-miterlimit:10" />
    </g>
  </g>
</svg>
