<?xml version="1.0" encoding="UTF-8" standalone="no"?>
<svg
   xmlns:dc="http://purl.org/dc/elements/1.1/"
   xmlns:cc="http://creativecommons.org/ns#"
   xmlns:rdf="http://www.w3.org/1999/02/22-rdf-syntax-ns#"
   xmlns:svg="http://www.w3.org/2000/svg"
   xmlns="http://www.w3.org/2000/svg"
   xmlns:sodipodi="http://sodipodi.sourceforge.net/DTD/sodipodi-0.dtd"
   xmlns:inkscape="http://www.inkscape.org/namespaces/inkscape"
   viewBox="0 0 64 64"
   enable-background="new 0 0 64 64"
   version="1.1"
   id="svg22"
   sodipodi:docname="wow.svg"
   inkscape:version="0.92.3 (2405546, 2018-03-11)">
  <metadata
     id="metadata28">
    <rdf:RDF>
      <cc:Work
         rdf:about="">
        <dc:format>image/svg+xml</dc:format>
        <dc:type
           rdf:resource="http://purl.org/dc/dcmitype/StillImage" />
        <dc:title></dc:title>
      </cc:Work>
    </rdf:RDF>
  </metadata>
  <defs
     id="defs26" />
  <sodipodi:namedview
     pagecolor="#ffffff"
     bordercolor="#666666"
     borderopacity="1"
     objecttolerance="10"
     gridtolerance="10"
     guidetolerance="10"
     inkscape:pageopacity="0"
     inkscape:pageshadow="2"
     inkscape:window-width="1853"
     inkscape:window-height="1025"
     id="namedview24"
     showgrid="false"
     inkscape:zoom="3.6875"
     inkscape:cx="32"
     inkscape:cy="32"
     inkscape:window-x="67"
     inkscape:window-y="27"
     inkscape:window-maximized="1"
     inkscape:current-layer="svg22" />
  <g
     id="g1335"
     transform="matrix(0.97680695,0,0,0.97680695,-3.0411698,-2.5404151)">
    <g
       id="hair-7" />
    <g
       id="skin-6">
      <path
         id="path1205"
         d="m 56.3522,43.9976 -1.0617,-7.4771 c -0.5114,-3.0215 -0.8271,-7.288 -1.9002,-14.2739 -2.4731,-1.8145 -5.4509,1.6502 -6.2031,4.6336 L 44.4345,8.9599 C 43.8794,5.3465 37.3009,6.0829 37.9846,10.5342 L 40.0714,24.6119 37.5421,7.6536 C 36.9445,3.7633 30.4079,3.38 31.478,10.346 30.9445,6.873 24.3942,6.9233 25.1972,12.1508 l 0.7744,5.4314 0.1014,0.8084 -0.221,-1.6979 C 25.3714,13.5641 19.7815,14.3153 20.4012,18.35 l 1.0803,6.4311"
         stroke-miterlimit="10"
         inkscape:connector-curvature="0"
         style="fill:#debb90;stroke:#debb90;stroke-width:2;stroke-linecap:round;stroke-linejoin:round;stroke-miterlimit:10" />
      <path
         id="path1207"
         d="m 22.7484,27.2535 c -3.1923,-3.1923 1.6882,-7.6885 4.2795,-5.0972 L 43.3371,38.4655 39.8796,35.008 c -1.1612,-2.8574 -0.8089,-7.4235 2.2659,-7.4235 5.01,5.01 8.4731,8.9333 10.6782,11.0721 6.2265,6.2265 6.2265,16.3217 0,22.5483 -6.2265,6.2266 -16.1868,6.2579 -22.4133,0.0314 L 13.1717,43.9976 c -2.8935,-2.8935 1.1791,-6.8155 3.4228,-4.5718 l 9.8594,10.043 -8.5742,-8.7339 -4.5079,-4.5918 c -3.7489,-3.7489 1.5155,-7.6739 4.0062,-5.1832 -4.9957,-4.9957 0.5147,-8.5621 3.3047,-5.7722 l 13.3909,13.3909"
         inkscape:connector-curvature="0"
         style="fill:#debb90" />
    </g>
    <g
       id="skin-shadow-4" />
    <g
       id="color-3" />
    <g
       id="line-0">
      <path
         id="path1212"
         d="M 13.1717,43.9976"
         stroke-miterlimit="10"
         inkscape:connector-curvature="0"
         style="fill:none;stroke:#000000;stroke-width:2;stroke-linecap:round;stroke-linejoin:round;stroke-miterlimit:10" />
      <path
         id="path1214"
         d="m 22.7484,27.2535 c -3.1923,-3.1923 1.6882,-7.6885 4.2795,-5.0972 L 43.3371,38.4655 39.8796,35.008 c -1.1612,-2.8574 -0.8089,-7.4235 2.2659,-7.4235 5.01,5.01 8.4731,8.9333 10.6782,11.0721 6.2265,6.2265 6.2265,16.3217 0,22.5483 -6.2265,6.2266 -16.1868,6.2579 -22.4133,0.0314 L 13.1717,43.9976 c -2.8935,-2.8935 1.1791,-6.8155 3.4228,-4.5718 l 9.8594,10.043 -8.5742,-8.7339 -4.5079,-4.5918 c -3.7489,-3.7489 1.5155,-7.6739 4.0062,-5.1832 -4.9957,-4.9957 0.5147,-8.5621 3.3047,-5.7722 l 13.3909,13.3909"
         stroke-miterlimit="10"
         inkscape:connector-curvature="0"
         style="fill:none;stroke:#000000;stroke-width:2;stroke-linecap:round;stroke-linejoin:round;stroke-miterlimit:10" />
      <line
         id="line1216"
         stroke-miterlimit="10"
         y2="20.171101"
         y1="18.341499"
         x2="20.6413"
         x1="20.3603"
         style="fill:none;stroke:#000000;stroke-width:2;stroke-linecap:round;stroke-linejoin:round;stroke-miterlimit:10" />
      <line
         id="line1218"
         stroke-miterlimit="10"
         y2="6.6237001"
         y1="12.9103"
         x2="14.0603"
         x1="15.4078"
         style="fill:none;stroke:#000000;stroke-width:2;stroke-linecap:round;stroke-linejoin:round;stroke-miterlimit:10" />
      <line
         id="line1220"
         stroke-miterlimit="10"
         y2="21.026199"
         y1="18.5051"
         x2="6.5921998"
         x1="12.5067"
         style="fill:none;stroke:#000000;stroke-width:2;stroke-linecap:round;stroke-linejoin:round;stroke-miterlimit:10" />
      <line
         id="line1222"
         stroke-miterlimit="10"
         y2="13.2187"
         y1="15.5204"
         x2="9.2138996"
         x1="13.6526"
         style="fill:none;stroke:#000000;stroke-width:2;stroke-linecap:round;stroke-linejoin:round;stroke-miterlimit:10" />
      <line
         id="line1224"
         stroke-miterlimit="10"
         y2="8.0732002"
         y1="14.4973"
         x2="54.270199"
         x1="54.532001"
         style="fill:none;stroke:#000000;stroke-width:2;stroke-linecap:round;stroke-linejoin:round;stroke-miterlimit:10" />
      <line
         id="line1226"
         stroke-miterlimit="10"
         y2="20.1602"
         y1="19.1926"
         x2="65.092003"
         x1="58.735802"
         style="fill:none;stroke:#000000;stroke-width:2;stroke-linecap:round;stroke-linejoin:round;stroke-miterlimit:10" />
      <line
         id="line1228"
         stroke-miterlimit="10"
         y2="13.2524"
         y1="16.587601"
         x2="60.6073"
         x1="56.882198"
         style="fill:none;stroke:#000000;stroke-width:2;stroke-linecap:round;stroke-linejoin:round;stroke-miterlimit:10" />
      <line
         id="line1230"
         stroke-miterlimit="10"
         y2="30.4172"
         y1="43.742901"
         x2="16.835199"
         x1="29.917299"
         style="fill:none;stroke:#000000;stroke-width:2;stroke-linecap:round;stroke-linejoin:round;stroke-miterlimit:10" />
      <line
         id="line1232"
         stroke-miterlimit="10"
         y2="25.1877"
         y1="38.578602"
         x2="20.6826"
         x1="34.073502"
         style="fill:none;stroke:#000000;stroke-width:2;stroke-linecap:round;stroke-linejoin:round;stroke-miterlimit:10" />
      <path
         id="path1234"
         d="m 13.1717,43.9976 c -2.8935,-2.8935 1.1791,-6.8155 3.4228,-4.5718 l 9.8594,10.043"
         stroke-miterlimit="10"
         inkscape:connector-curvature="0"
         style="fill:none;stroke:#000000;stroke-width:2;stroke-linecap:round;stroke-linejoin:round;stroke-miterlimit:10" />
      <path
         id="path1236"
         d="m 13.3717,36.1431 c -3.7489,-3.7489 1.5155,-7.6739 4.0062,-5.1832"
         stroke-miterlimit="10"
         inkscape:connector-curvature="0"
         style="fill:none;stroke:#000000;stroke-width:2;stroke-linecap:round;stroke-linejoin:round;stroke-miterlimit:10" />
      <path
         id="path1238"
         d="m 20.6826,25.1877 c -2.79,-2.79 -8.3004,0.7764 -3.3047,5.7722"
         stroke-miterlimit="10"
         inkscape:connector-curvature="0"
         style="fill:none;stroke:#000000;stroke-width:2;stroke-linecap:round;stroke-linejoin:round;stroke-miterlimit:10" />
      <path
         id="path1240"
         d="m 52.8236,38.6567 c -2.2051,-2.1389 -5.6682,-6.0622 -10.6782,-11.0721 -3.0748,0 -3.4271,4.5661 -2.2659,7.4235 L 43.337,38.4656 27.0279,22.1564 c -2.5914,-2.5914 -7.4718,1.9049 -4.2795,5.0972"
         stroke-miterlimit="10"
         inkscape:connector-curvature="0"
         style="fill:none;stroke:#000000;stroke-width:2;stroke-linecap:round;stroke-linejoin:round;stroke-miterlimit:10" />
      <path
         id="path1242"
         d="M 13.1717,43.9976"
         stroke-miterlimit="10"
         inkscape:connector-curvature="0"
         style="fill:none;stroke:#000000;stroke-width:2;stroke-linecap:round;stroke-linejoin:round;stroke-miterlimit:10" />
      <line
         id="line1244"
         stroke-miterlimit="10"
         y2="40.735001"
         y1="36.143101"
         x2="17.879601"
         x1="13.3717"
         style="fill:none;stroke:#000000;stroke-width:2;stroke-linecap:round;stroke-linejoin:round;stroke-miterlimit:10" />
      <path
         id="path1246"
         d="M 12.2112,40.793"
         stroke-miterlimit="10"
         inkscape:connector-curvature="0"
         style="fill:none;stroke:#000000;stroke-width:2;stroke-linecap:round;stroke-linejoin:round;stroke-miterlimit:10" />
      <path
         id="path1248"
         d="m 52.8236,38.6567 c 6.2265,6.2265 6.2265,16.3217 0,22.5483 -6.2265,6.2266 -16.1868,6.2579 -22.4133,0.0314"
         stroke-miterlimit="10"
         inkscape:connector-curvature="0"
         style="fill:none;stroke:#000000;stroke-width:2;stroke-linecap:round;stroke-linejoin:round;stroke-miterlimit:10" />
      <line
         id="line1250"
         stroke-miterlimit="10"
         y2="61.236301"
         y1="43.997601"
         x2="30.410299"
         x1="13.1717"
         style="fill:none;stroke:#000000;stroke-width:2;stroke-linecap:round;stroke-linejoin:round;stroke-miterlimit:10" />
      <line
         id="line1252"
         stroke-miterlimit="10"
         y2="9.5592003"
         y1="23.7062"
         x2="31.347601"
         x1="33.387299"
         style="fill:none;stroke:#000000;stroke-width:2;stroke-linecap:round;stroke-linejoin:round;stroke-miterlimit:10" />
      <line
         id="line1254"
         stroke-miterlimit="10"
         y2="7.6188002"
         y1="24.618601"
         x2="37.543098"
         x1="40.078602"
         style="fill:none;stroke:#000000;stroke-width:2;stroke-linecap:round;stroke-linejoin:round;stroke-miterlimit:10" />
      <path
         id="path1256"
         d="m 20.3603,18.3415 c -0.6213,-4.0446 4.9823,-4.7977 5.4641,-1.6614 l 0.2215,1.702"
         stroke-miterlimit="10"
         inkscape:connector-curvature="0"
         style="fill:none;stroke:#000000;stroke-width:2;stroke-linecap:round;stroke-linejoin:round;stroke-miterlimit:10" />
      <path
         id="path1258"
         d="m 25.1679,12.127 c -0.805,-5.2403 5.7614,-5.2907 6.2962,-1.8092"
         stroke-miterlimit="10"
         inkscape:connector-curvature="0"
         style="fill:none;stroke:#000000;stroke-width:2;stroke-linecap:round;stroke-linejoin:round;stroke-miterlimit:10" />
      <path
         id="path1260"
         d="M 37.5431,7.6188 C 36.944,3.7189 30.3914,3.3347 31.4641,10.3179"
         stroke-miterlimit="10"
         inkscape:connector-curvature="0"
         style="fill:none;stroke:#000000;stroke-width:2;stroke-linecap:round;stroke-linejoin:round;stroke-miterlimit:10" />
      <path
         id="path1262"
         d="M 55.3349,36.5565 C 54.8222,33.5276 54.5058,29.2506 53.4301,22.2476 50.951,20.4287 47.9658,23.9018 47.2118,26.8925 L 44.4524,8.9283 C 43.896,5.306 37.3013,6.0442 37.9867,10.5064"
         stroke-miterlimit="10"
         inkscape:connector-curvature="0"
         style="fill:none;stroke:#000000;stroke-width:2;stroke-linecap:round;stroke-linejoin:round;stroke-miterlimit:10" />
      <path
         id="path1264"
         d="M 20.3603,18.3415"
         stroke-miterlimit="10"
         inkscape:connector-curvature="0"
         style="fill:none;stroke:#000000;stroke-width:2;stroke-linecap:round;stroke-linejoin:round;stroke-miterlimit:10" />
      <line
         id="line1266"
         stroke-miterlimit="10"
         y2="17.5718"
         y1="12.127"
         x2="25.944201"
         x1="25.1679"
         style="fill:none;stroke:#000000;stroke-width:2;stroke-linecap:round;stroke-linejoin:round;stroke-miterlimit:10" />
      <path
         id="path1268"
         d="M 21.4816,15.1896"
         stroke-miterlimit="10"
         inkscape:connector-curvature="0"
         style="fill:none;stroke:#000000;stroke-width:2;stroke-linecap:round;stroke-linejoin:round;stroke-miterlimit:10" />
      <line
         id="line1270"
         stroke-miterlimit="10"
         y2="20.171101"
         y1="18.341499"
         x2="20.6413"
         x1="20.3603"
         style="fill:none;stroke:#000000;stroke-width:2;stroke-linecap:round;stroke-linejoin:round;stroke-miterlimit:10" />
      <line
         id="line1272"
         stroke-miterlimit="10"
         y2="6.6237001"
         y1="12.9103"
         x2="14.0603"
         x1="15.4078"
         style="fill:none;stroke:#000000;stroke-width:2;stroke-linecap:round;stroke-linejoin:round;stroke-miterlimit:10" />
      <line
         id="line1274"
         stroke-miterlimit="10"
         y2="21.026199"
         y1="18.5051"
         x2="6.5921998"
         x1="12.5067"
         style="fill:none;stroke:#000000;stroke-width:2;stroke-linecap:round;stroke-linejoin:round;stroke-miterlimit:10" />
      <line
         id="line1276"
         stroke-miterlimit="10"
         y2="13.2187"
         y1="15.5204"
         x2="9.2138996"
         x1="13.6526"
         style="fill:none;stroke:#000000;stroke-width:2;stroke-linecap:round;stroke-linejoin:round;stroke-miterlimit:10" />
      <line
         id="line1278"
         stroke-miterlimit="10"
         y2="8.0732002"
         y1="14.4973"
         x2="54.270199"
         x1="54.532001"
         style="fill:none;stroke:#000000;stroke-width:2;stroke-linecap:round;stroke-linejoin:round;stroke-miterlimit:10" />
      <line
         id="line1280"
         stroke-miterlimit="10"
         y2="20.1602"
         y1="19.1926"
         x2="65.092003"
         x1="58.735802"
         style="fill:none;stroke:#000000;stroke-width:2;stroke-linecap:round;stroke-linejoin:round;stroke-miterlimit:10" />
      <line
         id="line1282"
         stroke-miterlimit="10"
         y2="13.2524"
         y1="16.587601"
         x2="60.6073"
         x1="56.882198"
         style="fill:none;stroke:#000000;stroke-width:2;stroke-linecap:round;stroke-linejoin:round;stroke-miterlimit:10" />
    </g>
  </g>
</svg>
